<svg xmlns="http://www.w3.org/2000/svg" xmlns:svg="http://www.w3.org/2000/svg" xmlns:xlink="http://www.w3.org/1999/xlink" id="svg2" width="744.094" height="1052.362" version="1.1"><defs id="defs4"><linearGradient id="linearGradient3771"><stop id="stop3773" offset="0" stop-color="#fff" stop-opacity=".455"/><stop id="stop3775" offset="1" stop-color="#0082db" stop-opacity="1"/></linearGradient><linearGradient id="linearGradient3769" x1="403.7" x2="404.1" y1="767.062" y2="743.062" gradientTransform="translate(-1.1999,1.4)" gradientUnits="userSpaceOnUse" xlink:href="#linearGradient3771"/><linearGradient id="linearGradient3779" x1="403.7" x2="404.1" y1="767.062" y2="743.062" gradientTransform="matrix(-1,0,0,1,806.8001,1.4)" gradientUnits="userSpaceOnUse" xlink:href="#linearGradient3771"/><clipPath id="clipPath3801" clipPathUnits="userSpaceOnUse"><path id="path3803" d="M 0,792 612,792 612,0 0,0 0,792 z"/></clipPath><linearGradient id="linearGradient3883" x1="403.7" x2="404.1" y1="767.062" y2="743.062" gradientTransform="translate(-1.1999,1.4)" gradientUnits="userSpaceOnUse" xlink:href="#linearGradient3771"/><linearGradient id="linearGradient3885" x1="403.7" x2="404.1" y1="767.062" y2="743.062" gradientTransform="matrix(-1,0,0,1,806.8001,1.4)" gradientUnits="userSpaceOnUse" xlink:href="#linearGradient3771"/><linearGradient id="linearGradient3888" x1="403.7" x2="404.1" y1="767.062" y2="743.062" gradientTransform="matrix(-1,0,0,1,809.0001,-1)" gradientUnits="userSpaceOnUse" xlink:href="#linearGradient3771"/><linearGradient id="linearGradient3891" x1="403.7" x2="404.1" y1="767.062" y2="743.062" gradientTransform="translate(1.0001,-1)" gradientUnits="userSpaceOnUse" xlink:href="#linearGradient3771"/><linearGradient id="linearGradient3936" x1="403.7" x2="404.1" y1="767.062" y2="743.062" gradientTransform="translate(1.0001,-1)" gradientUnits="userSpaceOnUse" xlink:href="#linearGradient3771"/><linearGradient id="linearGradient3938" x1="403.7" x2="404.1" y1="767.062" y2="743.062" gradientTransform="matrix(-1,0,0,1,809.0001,-1)" gradientUnits="userSpaceOnUse" xlink:href="#linearGradient3771"/><linearGradient id="linearGradient3994" x1="403.7" x2="404.1" y1="767.062" y2="743.062" gradientTransform="matrix(-1,0,0,1,837.0001,35)" gradientUnits="userSpaceOnUse" xlink:href="#linearGradient3771"/><linearGradient id="linearGradient3997" x1="403.7" x2="404.1" y1="767.062" y2="743.062" gradientTransform="translate(29.0001,35)" gradientUnits="userSpaceOnUse" xlink:href="#linearGradient3771"/><filter id="filter3999" width="1.5" height="1.5" x="-.25" y="-.25"><feGaussianBlur id="feGaussianBlur4001" in="SourceAlpha" result="blur" stdDeviation="2"/><feColorMatrix id="feColorMatrix4003" result="bluralpha" type="matrix" values="1 0 0 0 0 0 1 0 0 0 0 0 1 0 0 0 0 0 0.5 0"/><feOffset id="feOffset4005" dx="4" dy="4" in="bluralpha" result="offsetBlur"/><feMerge id="feMerge4007"><feMergeNode id="feMergeNode4009" in="offsetBlur"/><feMergeNode id="feMergeNode4011" in="SourceGraphic"/></feMerge></filter><linearGradient id="linearGradient3077" x1="403.7" x2="404.1" y1="767.062" y2="743.062" gradientTransform="translate(29.0001,35)" gradientUnits="userSpaceOnUse" xlink:href="#linearGradient3771"/><linearGradient id="linearGradient3079" x1="403.7" x2="404.1" y1="767.062" y2="743.062" gradientTransform="matrix(-1,0,0,1,837.0001,35)" gradientUnits="userSpaceOnUse" xlink:href="#linearGradient3771"/></defs><metadata id="metadata7"/><g id="layer1"><path id="path3081" fill="#373535" fill-opacity="1" fill-rule="nonzero" stroke="none" d="m 263.68947,844.31218 -140,0 0,-142.9 140,0 0,142.9 z" filter="url(#filter3999)"/><path id="path3795" fill="#373535" fill-opacity="1" fill-rule="nonzero" stroke="none" d="m 474.18947,810.81218 -140,0 0,-142.9 140,0 0,142.9 z" filter="url(#filter3999)"/><g id="g3067"><path id="path2989" fill="url(#linearGradient3997)" fill-opacity="1" stroke="none" d="m 426.6001,802.06218 0,-15.3 -18.4,0 24.8,-24.7 0,40 z"/><path id="path3777" fill="url(#linearGradient3994)" fill-opacity="1" stroke="none" d="m 439.4001,802.06218 0,-15.3 18.4,0 -24.8,-24.7 0,40 z"/></g><path id="path3829" fill="#fff" fill-opacity="1" fill-rule="nonzero" stroke="none" d="m 341.48231,778.51946 c 0.46002,-14.32432 3.75358,-28.61338 9.64644,-41.56184 5.87592,-12.97248 14.30739,-24.66222 24.5705,-34.25363 10.25887,-9.59988 22.34515,-17.1 35.33315,-21.96274 12.98375,-4.88108 26.84804,-7.08807 40.5176,-6.60972 -13.67239,0.46145 -27.16133,3.60966 -39.43669,9.21748 -12.28666,5.59088 -23.35128,13.60182 -32.4234,23.34563 -9.07918,9.73817 -16.16163,21.20355 -20.73789,33.50292 -4.59603,12.31206 -6.65908,25.37342 -6.18072,38.39387 l -11.28899,-0.072 z"/><text id="text3809" x="413.318" y="721.622" font-size="9.094"><tspan id="tspan3811" x="413.318 427.759 444.201" y="721.622" fill="#fff" fill-opacity="1" fill-rule="nonzero" stroke="none" font-family="Myriad Pro Cond" font-size="36.376" font-stretch="condensed" font-variant="normal" font-weight="bold" writing-mode="lr-tb" style="-inkscape-font-specification:MyriadPro-BoldCond">EVE</tspan></text><text id="text3813" x="364.817" y="754.587" font-size="9.094"><tspan id="tspan3815" x="364.817 379.595 395.471 412.825 424.61 435.749 451.74" y="754.587" fill="#fff" fill-opacity="1" fill-rule="nonzero" stroke="none" font-family="Myriad Pro Cond" font-size="37.891" font-stretch="condensed" font-variant="normal" font-weight="bold" writing-mode="lr-tb" style="-inkscape-font-specification:MyriadPro-BoldCond">Central</tspan></text><g id="g3071" transform="matrix(1.8467742,0,0,2.4141129,-591.15331,-1106.642)"><path id="path3073" fill="url(#linearGradient3077)" fill-opacity="1" stroke="none" d="m 426.6001,802.06218 0,-15.3 -18.4,0 24.8,-24.7 0,40 z"/><path id="path3075" fill="url(#linearGradient3079)" fill-opacity="1" stroke="none" d="m 439.4001,802.06218 0,-15.3 18.4,0 -24.8,-24.7 0,40 z"/></g><path id="path3083" fill="#fff" fill-opacity="1" fill-rule="nonzero" stroke="none" d="m 131.98231,815.51946 c 0.46002,-14.32432 3.75358,-28.61338 9.64644,-41.56184 5.87592,-12.97248 14.30739,-24.66222 24.5705,-34.25363 10.25887,-9.59988 22.34515,-17.1 35.33315,-21.96274 12.98375,-4.88108 26.84804,-7.08807 40.5176,-6.60972 -13.67239,0.46145 -27.16133,3.60966 -39.43669,9.21748 -12.28666,5.59088 -23.35128,13.60182 -32.4234,23.34563 -9.07918,9.73817 -16.16163,21.20355 -20.73789,33.50292 -4.59603,12.31206 -6.65908,25.37342 -6.18072,38.39387 l -11.28899,-0.072 z"/></g></svg>